<?xml version="1.0" encoding="UTF-8" standalone="no"?>
<!-- Created with Inkscape (http://www.inkscape.org/) -->

<svg
   width="58.271076mm"
   height="50.779449mm"
   viewBox="0 0 58.271076 50.779449"
   version="1.1"
   id="svg1"
   inkscape:version="1.3.2 (091e20ef0f, 2023-11-25)"
   sodipodi:docname="Donate.svg"
   xmlns:inkscape="http://www.inkscape.org/namespaces/inkscape"
   xmlns:sodipodi="http://sodipodi.sourceforge.net/DTD/sodipodi-0.dtd"
   xmlns="http://www.w3.org/2000/svg"
   xmlns:svg="http://www.w3.org/2000/svg">
  <sodipodi:namedview
     id="namedview1"
     pagecolor="#505050"
     bordercolor="#eeeeee"
     borderopacity="1"
     inkscape:showpageshadow="0"
     inkscape:pageopacity="0"
     inkscape:pagecheckerboard="0"
     inkscape:deskcolor="#505050"
     inkscape:document-units="mm"
     inkscape:zoom="2.0686841"
     inkscape:cx="80.244248"
     inkscape:cy="61.633383"
     inkscape:window-width="1920"
     inkscape:window-height="1018"
     inkscape:window-x="0"
     inkscape:window-y="0"
     inkscape:window-maximized="1"
     inkscape:current-layer="layer1" />
  <defs
     id="defs1">
    <clipPath
       clipPathUnits="userSpaceOnUse"
       id="clipPath18">
      <path
         d="M 0,595.28 H 841.89 V 0 H 0 Z"
         id="path16"
         inkscape:connector-curvature="0" />
    </clipPath>
  </defs>
  <g
     inkscape:label="Layer 1"
     inkscape:groupmode="layer"
     id="layer1"
     transform="translate(-75.864459,-126.78238)">
    <g
       id="g2"
       transform="matrix(2.7786946,0,0,2.7786946,-171.87659,-347.14612)">
      <g
         style="fill:#000000;fill-opacity:1;stroke:none"
         clip-path="url(#clipPath18)"
         id="g14"
         transform="matrix(-0.17911041,0,0,-0.17911041,175.19552,225.71469)">
        <g
           style="fill:#000000;fill-opacity:1;stroke:none"
           transform="translate(441.0146,445.6182)"
           id="g20" />
        <g
           style="fill:#000000;fill-opacity:1;stroke:none"
           transform="translate(420.6045,493.0874)"
           id="g24" />
        <g
           style="fill:#000000;fill-opacity:1;stroke:none"
           transform="translate(417.4014,479.8281)"
           id="g28" />
        <g
           style="fill:#000000;fill-opacity:1;stroke:none"
           transform="translate(384.8184,493.0874)"
           id="g32" />
        <g
           style="fill:#000000;fill-opacity:1;stroke:none"
           transform="translate(381.6152,479.8281)"
           id="g36" />
        <g
           style="fill:#000000;fill-opacity:1;stroke:none"
           transform="translate(459.9199,222.9453)"
           id="g40">
          <path
             inkscape:connector-curvature="0"
             id="path42"
             style="fill:#000000;fill-opacity:1;fill-rule:nonzero;stroke:none"
             d="m -80.031,32.708 4.884,19.814 5.984,-8.975 v 0.001 c 2.17,5.014 7.157,8.523 12.967,8.523 7.803,0 14.131,-6.326 14.131,-14.131 0,-0.679 -0.065,-1.343 -0.158,-1.998 -0.469,-3.306 -2.088,-6.239 -4.429,-8.396 l 5.694,-11.389 h -20.966 l -0.009,-0.011 -15.066,13.787 z m 76.494,21.201 -3.797,-5.694 c -3.106,3.954 -7.895,6.356 -13.076,6.356 -9.001,0 -16.356,-7.189 -16.621,-16.129 h -2.542 c -0.266,8.94 -7.621,16.129 -16.623,16.129 -5.181,0 -9.969,-2.401 -13.075,-6.355 l -3.791,5.685 -16.962,25.668 51.722,-17.713 52.067,17.832 z M -34.382,35.942 c -0.093,0.655 -0.157,1.319 -0.157,1.998 0,7.805 6.326,14.131 14.129,14.131 5.81,0 10.798,-3.509 12.969,-8.523 v -0.001 l 5.984,8.975 4.885,-19.814 -3.033,-2.775 -15.067,-13.787 -0.008,0.011 h -20.966 l 5.694,11.388 c -2.342,2.158 -3.96,5.09 -4.43,8.397 M -63.73677,13.63593 -39.702,13.646 l 1.4,-2.801 1.401,2.801 24.036965,0.02311 C -6.8434097,18.740887 0.27011121,26.373382 6.667,30.929 c 0.404,0.37 0.574,0.931 0.442,1.465 L 1.503,55.138 19.979,82.667 c 0.36,0.535 0.337,1.239 -0.055,1.75 -0.392,0.511 -1.063,0.713 -1.676,0.505 l -56.55,-19.366 -56.141,19.226 c -0.604,0.207 -1.279,0.007 -1.672,-0.501 -0.393,-0.508 -0.419,-1.21 -0.065,-1.745 l 18.081,-27.361 -5.615,-22.781 c -0.131,-0.534 0.039,-1.096 0.444,-1.466 6.437879,-5.844547 13.011231,-11.541186 19.53323,-17.29207 z"
             sodipodi:nodetypes="scscccccccccscccsscccssccccccccccccccccsccccccssccccccccc" />
        </g>
        <g
           style="fill:#000000;fill-opacity:1;stroke:none"
           transform="translate(439.5098,270.415)"
           id="g44">
          <path
             inkscape:connector-curvature="0"
             id="path46"
             style="fill:#000000;fill-opacity:1;fill-rule:nonzero;stroke:none"
             d="m 0,0 c 5.263,0 9.528,-4.266 9.528,-9.528 0,-5.263 -4.265,-9.529 -9.528,-9.529 -5.262,0 -9.527,4.266 -9.527,9.529 C -9.527,-4.266 -5.262,0 0,0 m 0,-21.557 c 6.633,0 12.028,5.397 12.028,12.029 C 12.028,-2.896 6.633,2.5 0,2.5 c -6.632,0 -12.027,-5.396 -12.027,-12.028 0,-6.632 5.395,-12.029 12.027,-12.029" />
        </g>
        <g
           style="fill:#000000;fill-opacity:1;stroke:none"
           transform="translate(436.3066,257.1553)"
           id="g48">
          <path
             inkscape:connector-curvature="0"
             id="path50"
             style="fill:#000000;fill-opacity:1;fill-rule:nonzero;stroke:none"
             d="m 0,0 c 0.979,0 1.772,-0.795 1.772,-1.773 0,-0.596 -0.295,-1.12 -0.747,-1.442 0.689,-0.215 1.419,-0.332 2.178,-0.332 4.019,0 7.277,3.258 7.277,7.277 0,1.307 -0.348,2.53 -0.951,3.589 C 9.286,5.301 7.587,3.73 5.504,3.73 c -2.251,0 -4.076,1.825 -4.076,4.075 0,1.3 0.622,2.447 1.572,3.193 -3.925,-0.109 -7.075,-3.316 -7.075,-7.268 0,-2.101 0.896,-3.989 2.32,-5.317 C -1.66,-0.697 -0.916,0 0,0" />
        </g>
        <g
           style="fill:#000000;fill-opacity:1;stroke:none"
           transform="translate(403.7236,270.415)"
           id="g52">
          <path
             inkscape:connector-curvature="0"
             id="path54"
             style="fill:#000000;fill-opacity:1;fill-rule:nonzero;stroke:none"
             d="m 0,0 c 5.263,0 9.528,-4.266 9.528,-9.528 0,-5.263 -4.265,-9.529 -9.528,-9.529 -5.262,0 -9.527,4.266 -9.527,9.529 C -9.527,-4.266 -5.262,0 0,0 m 0,-21.557 c 6.633,0 12.028,5.397 12.028,12.029 C 12.028,-2.896 6.633,2.5 0,2.5 c -6.632,0 -12.027,-5.396 -12.027,-12.028 0,-6.632 5.395,-12.029 12.027,-12.029" />
        </g>
        <g
           style="fill:#000000;fill-opacity:1;stroke:none"
           transform="translate(400.5205,257.1553)"
           id="g56">
          <path
             inkscape:connector-curvature="0"
             id="path58"
             style="fill:#000000;fill-opacity:1;fill-rule:nonzero;stroke:none"
             d="m 0,0 c 0.979,0 1.773,-0.795 1.773,-1.773 0,-0.596 -0.296,-1.12 -0.747,-1.442 0.688,-0.215 1.418,-0.332 2.177,-0.332 4.019,0 7.277,3.258 7.277,7.277 0,1.307 -0.348,2.53 -0.951,3.589 C 9.286,5.301 7.587,3.73 5.504,3.73 c -2.25,0 -4.075,1.825 -4.075,4.075 0,1.3 0.622,2.447 1.572,3.193 -3.925,-0.108 -7.076,-3.316 -7.076,-7.268 0,-2.101 0.896,-3.988 2.32,-5.317 C -1.66,-0.697 -0.915,0 0,0" />
        </g>
      </g>
    </g>
    <g
       id="g3"
       transform="matrix(1.2367799,0,0,1.2367799,-24.86189,-38.940868)">
      <path
         style="font-weight:bold;font-stretch:condensed;font-size:7.05556px;line-height:0.75;font-family:'Open Sans Condensed';-inkscape-font-specification:'Open Sans Condensed,  Bold Condensed';stroke-width:0.0264583;stroke-dashoffset:449.428"
         d="m 83.120184,166.60647 0.671794,-2.04639 h 0.995633 l -1.192004,3.09715 v 1.93959 h -0.961182 v -1.91203 l -1.192004,-3.12471 h 1.002523 z m 4.857587,1.05076 q 0,0.40307 -0.08268,0.76481 -0.07924,0.36173 -0.254937,0.64079 -0.172255,0.27905 -0.454753,0.44097 -0.279053,0.16192 -0.68213,0.16192 -0.375515,0 -0.651123,-0.15848 -0.275608,-0.15847 -0.454753,-0.43408 -0.179145,-0.27905 -0.268718,-0.64079 -0.08613,-0.36518 -0.08613,-0.77514 0,-0.58222 0.151584,-1.03009 0.15503,-0.45131 0.478869,-0.70624 0.327284,-0.25494 0.844049,-0.25494 0.444417,0 0.771702,0.23082 0.330729,0.23082 0.509874,0.67524 0.179145,0.44097 0.179145,1.08521 z m -2.005047,0.0138 q 0,0.39963 0.05512,0.67179 0.05857,0.27216 0.1757,0.40997 0.120578,0.1378 0.306614,0.1378 0.18948,0 0.303168,-0.13436 0.117134,-0.1378 0.16881,-0.41341 0.05512,-0.27561 0.05512,-0.68557 0,-0.40652 -0.05512,-0.67524 -0.05168,-0.26872 -0.16881,-0.40308 -0.113688,-0.13436 -0.303168,-0.13436 -0.282498,0 -0.409967,0.29973 -0.127469,0.29972 -0.127469,0.92673 z m 5.395023,-1.9327 v 3.85851 h -0.720025 l -0.103353,-0.49265 h -0.05168 q -0.08613,0.18603 -0.210151,0.31006 -0.124024,0.12402 -0.285944,0.18603 -0.158474,0.0655 -0.354845,0.0655 -0.341064,0 -0.568441,-0.16881 -0.227376,-0.16881 -0.341064,-0.48231 -0.113689,-0.31695 -0.113689,-0.75793 v -2.51836 h 0.916396 v 2.24276 q 0,0.43408 0.08613,0.65112 0.08613,0.21704 0.279053,0.21704 0.230821,0 0.347955,-0.13436 0.117133,-0.13436 0.158474,-0.39274 0.04479,-0.25838 0.04479,-0.62356 v -1.96026 z m 3.362415,3.92741 q -0.482313,0 -0.806153,-0.2136 -0.320394,-0.21704 -0.482313,-0.65457 -0.158475,-0.44097 -0.158475,-1.11276 0,-0.58567 0.15503,-1.04042 0.155029,-0.4582 0.478868,-0.71658 0.323839,-0.26183 0.826824,-0.26183 0.285943,0 0.513319,0.0655 0.230822,0.062 0.430638,0.18948 l -0.254938,0.7338 q -0.158474,-0.0965 -0.313504,-0.14125 -0.151584,-0.0482 -0.306613,-0.0482 -0.189481,0 -0.323839,0.14125 -0.134359,0.13781 -0.206706,0.40997 -0.0689,0.26872 -0.0689,0.66835 0,0.39618 0.0689,0.66146 0.07235,0.26527 0.206706,0.39963 0.137803,0.13091 0.337619,0.13091 0.196371,0 0.396186,-0.0724 0.199816,-0.0723 0.389296,-0.21015 v 0.78549 q -0.186035,0.14814 -0.416856,0.21704 -0.227377,0.0689 -0.465089,0.0689 z m 2.849097,-3.99976 q 0.561551,0 0.854384,0.34796 0.296279,0.34451 0.296279,1.03008 v 2.55282 h -0.671794 l -0.14814,-0.51677 h -0.02067 q -0.117133,0.19637 -0.251492,0.32729 -0.130914,0.13091 -0.299724,0.19292 -0.16881,0.0655 -0.396186,0.0655 -0.320394,0 -0.52021,-0.17226 -0.19637,-0.17225 -0.285943,-0.44786 -0.08957,-0.27561 -0.08957,-0.58567 0,-0.60289 0.334174,-0.91295 0.334175,-0.31005 0.950847,-0.33417 l 0.478869,-0.0207 v -0.15503 q 0,-0.31695 -0.09991,-0.47198 -0.09646,-0.15847 -0.320394,-0.15847 -0.165365,0 -0.361736,0.0654 -0.19637,0.0655 -0.430637,0.20326 l -0.254937,-0.68557 q 0.261827,-0.15847 0.575331,-0.24116 0.313504,-0.0827 0.661459,-0.0827 z m 0.230822,2.13941 -0.258383,0.0138 q -0.292833,0.0138 -0.437527,0.16536 -0.141249,0.14814 -0.141249,0.43408 0,0.25839 0.08613,0.38585 0.08957,0.12747 0.258383,0.12747 0.217041,0 0.354845,-0.21015 0.137804,-0.21015 0.137804,-0.56499 z m 3.434759,-2.13941 q 0.48921,0 0.75103,0.35485 0.26528,0.3514 0.26528,1.02319 v 2.55282 h -0.9164 v -2.28755 q 0,-0.40652 -0.0827,-0.61323 -0.0827,-0.21015 -0.31351,-0.21015 -0.28938,0 -0.40652,0.2825 -0.11369,0.2825 -0.11369,0.97152 v 1.85691 h -0.916392 v -3.85851 h 0.726912 l 0.0965,0.49265 h 0.0586 q 0.0861,-0.18259 0.21015,-0.30662 0.12403,-0.12747 0.28595,-0.19292 0.16192,-0.0655 0.35484,-0.0655 z m 6.31142,1.31947 q 0,0.84405 -0.23427,1.42627 -0.23082,0.58222 -0.67868,0.88539 -0.44442,0.29973 -1.0921,0.29973 h -1.18511 v -5.03674 h 1.25746 q 0.62012,0 1.05076,0.27906 0.43408,0.27905 0.65801,0.81993 0.22393,0.54088 0.22393,1.32636 z m -0.99563,0.0448 q 0,-0.565 -0.1068,-0.92673 -0.1068,-0.36174 -0.32039,-0.53399 -0.21016,-0.17226 -0.52366,-0.17226 h -0.27561 v 3.35208 h 0.21015 q 0.52366,0 0.76826,-0.42374 0.24805,-0.42375 0.24805,-1.29536 z m 4.48896,0.62701 q 0,0.40307 -0.0827,0.76481 -0.0792,0.36173 -0.25494,0.64079 -0.17225,0.27905 -0.45475,0.44097 -0.27905,0.16192 -0.68213,0.16192 -0.37552,0 -0.65112,-0.15848 -0.27561,-0.15847 -0.45476,-0.43408 -0.17914,-0.27905 -0.26872,-0.64079 -0.0861,-0.36518 -0.0861,-0.77514 0,-0.58222 0.15158,-1.03009 0.15503,-0.45131 0.47887,-0.70624 0.32728,-0.25494 0.84405,-0.25494 0.44442,0 0.7717,0.23082 0.33073,0.23082 0.50988,0.67524 0.17914,0.44097 0.17914,1.08521 z m -2.00505,0.0138 q 0,0.39963 0.0551,0.67179 0.0586,0.27216 0.1757,0.40997 0.12057,0.1378 0.30661,0.1378 0.18948,0 0.30317,-0.13436 0.11713,-0.1378 0.16881,-0.41341 0.0551,-0.27561 0.0551,-0.68557 0,-0.40652 -0.0551,-0.67524 -0.0517,-0.26872 -0.16881,-0.40308 -0.11369,-0.13436 -0.30317,-0.13436 -0.2825,0 -0.40997,0.29973 -0.12747,0.29972 -0.12747,0.92673 z m 4.38561,-2.00505 q 0.48921,0 0.75103,0.35485 0.26528,0.3514 0.26528,1.02319 v 2.55282 h -0.9164 v -2.28755 q 0,-0.40652 -0.0827,-0.61323 -0.0827,-0.21015 -0.31351,-0.21015 -0.28938,0 -0.40652,0.2825 -0.11369,0.2825 -0.11369,0.97152 v 1.85691 h -0.91639 v -3.85851 h 0.72691 l 0.0965,0.49265 h 0.0586 q 0.0861,-0.18259 0.21015,-0.30662 0.12403,-0.12747 0.28595,-0.19292 0.16192,-0.0655 0.35484,-0.0655 z m 3.14193,0 q 0.56155,0 0.85439,0.34796 0.29628,0.34451 0.29628,1.03008 v 2.55282 h -0.6718 l -0.14814,-0.51677 h -0.0207 q -0.11713,0.19637 -0.25149,0.32729 -0.13091,0.13091 -0.29972,0.19292 -0.16881,0.0655 -0.39619,0.0655 -0.32039,0 -0.52021,-0.17226 -0.19637,-0.17225 -0.28594,-0.44786 -0.0896,-0.27561 -0.0896,-0.58567 0,-0.60289 0.33417,-0.91295 0.33417,-0.31005 0.95085,-0.33417 l 0.47887,-0.0207 v -0.15503 q 0,-0.31695 -0.0999,-0.47198 -0.0965,-0.15847 -0.3204,-0.15847 -0.16536,0 -0.36173,0.0654 -0.19637,0.0655 -0.43064,0.20326 l -0.25494,-0.68557 q 0.26183,-0.15847 0.57533,-0.24116 0.31351,-0.0827 0.66146,-0.0827 z m 0.23083,2.13941 -0.25839,0.0138 q -0.29283,0.0138 -0.43752,0.16536 -0.14125,0.14814 -0.14125,0.43408 0,0.25839 0.0861,0.38585 0.0896,0.12747 0.25839,0.12747 0.21704,0 0.35484,-0.21015 0.13781,-0.21015 0.13781,-0.56499 z m 2.99034,1.05764 q 0.0965,0 0.20326,-0.0241 0.11024,-0.0276 0.22738,-0.0827 v 0.73381 q -0.15159,0.0861 -0.33418,0.13091 -0.17914,0.0448 -0.3824,0.0448 -0.33073,0 -0.54088,-0.13091 -0.20671,-0.13436 -0.30317,-0.40308 -0.0965,-0.27216 -0.0965,-0.68558 v -1.94648 h -0.37896 v -0.49264 l 0.45131,-0.24116 0.21704,-0.84061 h 0.62701 v 0.81305 h 0.69247 v 0.76136 h -0.69247 v 1.91203 q 0,0.22738 0.0689,0.34107 0.0724,0.11024 0.24116,0.11024 z m 2.20142,-3.19016 q 0.43408,0 0.7338,0.2136 0.30317,0.21359 0.4582,0.60633 0.15503,0.3893 0.15503,0.92329 v 0.51676 h -1.83968 q 0.007,0.50643 0.18603,0.74759 0.17915,0.23771 0.54777,0.23771 0.2446,0 0.46165,-0.062 0.22048,-0.0655 0.46853,-0.22049 v 0.76482 q -0.23082,0.1378 -0.49265,0.19981 -0.26183,0.0655 -0.565,0.0655 -0.53054,0 -0.86472,-0.23771 -0.33417,-0.24116 -0.4892,-0.68213 -0.15503,-0.44442 -0.15503,-1.0542 0,-0.65113 0.15503,-1.09899 0.15847,-0.45131 0.46853,-0.68557 0.31006,-0.23427 0.77171,-0.23427 z m 0.0207,0.72003 q -0.22738,0 -0.36174,0.2067 -0.13436,0.20326 -0.14469,0.66835 h 0.98185 q 0,-0.27216 -0.0551,-0.46853 -0.0551,-0.19637 -0.16192,-0.29973 -0.1068,-0.10679 -0.25838,-0.10679 z m 4.24436,2.26687 0.0413,0.0758 q -0.0586,0.3514 -0.13436,0.6718 -0.0724,0.31695 -0.16192,0.60289 -0.0861,0.28939 -0.18948,0.54777 h -0.75448 q 0.062,-0.2825 0.11714,-0.62356 0.0586,-0.34107 0.0999,-0.67524 0.0413,-0.33762 0.062,-0.59945 z m -1.05076,-2.38056 q 0,-0.27905 0.13781,-0.43064 0.14125,-0.15503 0.40996,-0.15503 0.26183,0 0.39619,0.15503 0.13436,0.15159 0.13436,0.43064 0,0.2825 -0.1447,0.43064 -0.14124,0.14813 -0.38585,0.14813 -0.25838,0 -0.40307,-0.15158 -0.1447,-0.15158 -0.1447,-0.42719 z m 3.34864,1.3367 q 0,0.627 -0.12058,1.18166 -0.11714,0.55467 -0.33762,1.03353 -0.21704,0.47887 -0.51677,0.88195 h -0.82337 q 0.28938,-0.47887 0.4892,-0.97496 0.20326,-0.4961 0.30661,-1.02664 0.1068,-0.53055 0.1068,-1.10588 0,-0.596 -0.0999,-1.14033 -0.0999,-0.54777 -0.29972,-1.04731 -0.19982,-0.49954 -0.50298,-0.95773 h 0.82337 q 0.29284,0.39618 0.50988,0.88883 0.22048,0.48921 0.34106,1.06109 0.12403,0.56844 0.12403,1.20579 z"
         id="text1"
         aria-label="You can Donate ;)" />
      <path
         style="font-stretch:condensed;font-size:4.93889px;line-height:0.75;font-family:'Open Sans Condensed';-inkscape-font-specification:'Open Sans Condensed,  Condensed';stroke-width:0.0264583;stroke-dashoffset:449.428"
         d="m 89.294668,171.22397 v 2.6479 h -0.36897 v -2.6479 z m -0.178456,-0.99356 q 0.113344,0 0.163986,0.0723 0.05306,0.0724 0.05306,0.20016 0,0.1254 -0.05547,0.19775 -0.05547,0.0724 -0.161575,0.0724 -0.103697,0 -0.163987,-0.0724 -0.06029,-0.0724 -0.06029,-0.19775 0,-0.13263 0.05788,-0.20257 0.05788,-0.0699 0.166398,-0.0699 z m 1.779737,0.94533 q 0.313503,0 0.475078,0.21945 0.161575,0.21945 0.161575,0.67283 v 1.80385 h -0.371381 v -1.72909 q 0,-0.32074 -0.08441,-0.4799 -0.08199,-0.15917 -0.260449,-0.15917 -0.260449,0 -0.381028,0.23151 -0.120578,0.23151 -0.120578,0.74277 v 1.39388 H 89.94338 v -2.6479 h 0.296622 l 0.041,0.38344 h 0.02412 q 0.05547,-0.13264 0.142282,-0.2291 0.08682,-0.0965 0.20016,-0.14952 0.113344,-0.0531 0.248392,-0.0531 z m 2.105298,0.36173 h -0.417201 v 2.3344 h -0.36897 v -2.3344 h -0.325562 v -0.20016 l 0.325562,-0.1254 v -0.17845 q 0,-0.30145 0.05064,-0.51126 0.05305,-0.2098 0.180867,-0.31832 0.130225,-0.11093 0.356912,-0.11093 0.106109,0 0.195337,0.0193 0.09164,0.0193 0.188103,0.0579 l -0.09646,0.29903 q -0.06752,-0.0241 -0.127813,-0.0362 -0.05788,-0.0145 -0.115755,-0.0145 -0.149518,0 -0.204984,0.13263 -0.05305,0.13023 -0.05788,0.47267 v 0.20016 h 0.417201 z m 2.037775,1.00804 q 0,0.3135 -0.05306,0.56672 -0.05305,0.25321 -0.161575,0.43408 -0.108521,0.18087 -0.274919,0.27733 -0.166398,0.0965 -0.393085,0.0965 -0.217041,0 -0.381028,-0.0965 -0.163986,-0.0965 -0.272507,-0.27492 -0.10852,-0.18087 -0.163986,-0.43408 -0.05547,-0.25563 -0.05547,-0.56913 0,-0.43891 0.09405,-0.74276 0.09405,-0.30627 0.289388,-0.46544 0.195337,-0.16157 0.496783,-0.16157 0.282153,0 0.47749,0.15675 0.195337,0.15434 0.296623,0.46061 0.101286,0.30386 0.101286,0.75241 z m -1.377005,0 q 0,0.34485 0.05305,0.57878 0.05305,0.23392 0.163987,0.35208 0.113343,0.11817 0.286976,0.11817 0.171221,0 0.279742,-0.11575 0.110932,-0.11576 0.163987,-0.34727 0.05305,-0.23392 0.05305,-0.58601 0,-0.34485 -0.05305,-0.57636 -0.05306,-0.23393 -0.163987,-0.34968 -0.108521,-0.11817 -0.282153,-0.11817 -0.265273,0 -0.38344,0.26286 -0.118166,0.26045 -0.118166,0.78135 z m 3.535357,-1.36977 q 0.366558,0 0.52331,0.23392 0.156752,0.23392 0.156752,0.67765 v 1.78456 h -0.282153 l -0.05547,-0.3762 h -0.0096 q -0.0627,0.13505 -0.149517,0.23151 -0.08682,0.0941 -0.197748,0.14469 -0.110933,0.0482 -0.255627,0.0482 -0.204983,0 -0.335207,-0.10852 -0.130225,-0.10852 -0.192926,-0.28456 -0.0627,-0.17846 -0.0627,-0.38344 0,-0.39309 0.226688,-0.61013 0.226687,-0.21704 0.643888,-0.23633 l 0.301446,-0.0193 v -0.18087 q 0,-0.31833 -0.08682,-0.46543 -0.08682,-0.14711 -0.279742,-0.14711 -0.110932,0 -0.233922,0.0386 -0.120578,0.0386 -0.262861,0.12299 l -0.118167,-0.27975 q 0.149517,-0.0965 0.318327,-0.14228 0.171221,-0.0482 0.352089,-0.0482 z m 0.315915,1.37459 -0.24598,0.0169 q -0.279741,0.0169 -0.417201,0.15917 -0.135048,0.13987 -0.135048,0.40755 0,0.24839 0.08923,0.36656 0.08923,0.11817 0.24598,0.11817 0.219453,0 0.340031,-0.21222 0.12299,-0.21222 0.12299,-0.58601 z m 1.625397,1.0418 q 0.06029,0 0.120579,-0.0121 0.06029,-0.0145 0.115755,-0.0386 v 0.30385 q -0.07476,0.0338 -0.161575,0.0531 -0.08682,0.0217 -0.192926,0.0217 -0.171221,0 -0.282153,-0.0772 -0.108521,-0.0772 -0.161575,-0.2291 -0.05064,-0.15434 -0.05064,-0.38585 v -1.69292 h -0.24598 v -0.20257 l 0.262861,-0.0989 0.09887,-0.61013 h 0.255626 v 0.60048 h 0.448552 v 0.31109 h -0.448552 v 1.64952 q 0,0.20498 0.04823,0.30626 0.05064,0.10129 0.192925,0.10129 z m 1.917194,-3.47266 v 1.09003 q 0,0.10611 -0.007,0.20498 -0.005,0.0965 -0.0193,0.18328 h 0.0265 q 0.0482,-0.13022 0.13264,-0.22427 0.0868,-0.0941 0.20016,-0.1447 0.11334,-0.0531 0.24357,-0.0531 0.22186,0 0.36414,0.1037 0.14229,0.10128 0.20981,0.30144 0.0675,0.19775 0.0675,0.49196 v 1.79903 h -0.37138 v -1.72668 q 0,-0.34244 -0.082,-0.48955 -0.082,-0.1471 -0.26527,-0.1471 -0.16881,0 -0.27974,0.10369 -0.11094,0.1037 -0.1664,0.32074 -0.0531,0.21463 -0.0531,0.55225 v 1.38665 h -0.37138 v -3.7524 z m 2.5635,1.05627 q 0.36656,0 0.52331,0.23392 0.15675,0.23392 0.15675,0.67765 v 1.78456 h -0.28215 l -0.0555,-0.3762 h -0.01 q -0.0627,0.13505 -0.14951,0.23151 -0.0868,0.0941 -0.19775,0.14469 -0.11093,0.0482 -0.25563,0.0482 -0.20498,0 -0.33521,-0.10852 -0.13022,-0.10852 -0.19292,-0.28456 -0.0627,-0.17846 -0.0627,-0.38344 0,-0.39309 0.22669,-0.61013 0.22668,-0.21704 0.64388,-0.23633 l 0.30145,-0.0193 v -0.18087 q 0,-0.31833 -0.0868,-0.46543 -0.0868,-0.14711 -0.27974,-0.14711 -0.11093,0 -0.23392,0.0386 -0.12058,0.0386 -0.26286,0.12299 l -0.11817,-0.27975 q 0.14952,-0.0965 0.31833,-0.14228 0.17122,-0.0482 0.35209,-0.0482 z m 0.31591,1.37459 -0.24598,0.0169 q -0.27974,0.0169 -0.4172,0.15917 -0.13505,0.13987 -0.13505,0.40755 0,0.24839 0.0892,0.36656 0.0892,0.11817 0.24598,0.11817 0.21945,0 0.34003,-0.21222 0.12299,-0.21222 0.12299,-0.58601 z m 1.37701,-0.0434 -0.58601,-1.28295 h 0.39791 l 0.40514,0.98151 0.41238,-0.98151 h 0.39308 l -0.59083,1.30225 0.61495,1.34565 h -0.39309 l -0.44614,-1.04421 -0.44373,1.04421 h -0.38826 z m 1.80867,-2.38745 v 1.87379 q 0,0.13987 -0.005,0.27251 -0.005,0.13263 -0.0169,0.26768 h 0.0169 q 0.041,-0.082 0.082,-0.15675 0.041,-0.0748 0.0868,-0.14469 l 0.6053,-1.00804 h 0.40032 l -0.63906,1.01768 0.68488,1.63022 h -0.3979 l -0.53778,-1.33118 -0.27975,0.34967 v 0.98151 h -0.37138 v -3.7524 z m 3.20015,2.42604 q 0,0.3135 -0.053,0.56672 -0.0531,0.25321 -0.16158,0.43408 -0.10852,0.18087 -0.27492,0.27733 -0.16639,0.0965 -0.39308,0.0965 -0.21704,0 -0.38103,-0.0965 -0.16398,-0.0965 -0.27251,-0.27492 -0.10852,-0.18087 -0.16398,-0.43408 -0.0555,-0.25563 -0.0555,-0.56913 0,-0.43891 0.094,-0.74276 0.0941,-0.30627 0.28939,-0.46544 0.19534,-0.16157 0.49678,-0.16157 0.28216,0 0.47749,0.15675 0.19534,0.15434 0.29663,0.46061 0.10128,0.30386 0.10128,0.75241 z m -1.377,0 q 0,0.34485 0.053,0.57878 0.0531,0.23392 0.16399,0.35208 0.11334,0.11817 0.28698,0.11817 0.17122,0 0.27974,-0.11575 0.11093,-0.11576 0.16398,-0.34727 0.0531,-0.23392 0.0531,-0.58601 0,-0.34485 -0.0531,-0.57636 -0.053,-0.23393 -0.16398,-0.34968 -0.10852,-0.11817 -0.28216,-0.11817 -0.26527,0 -0.38344,0.26286 -0.11816,0.26045 -0.11816,0.78135 z m 1.88102,1.06832 q 0,-0.1471 0.0627,-0.22427 0.0651,-0.0772 0.1881,-0.0772 0.11817,0 0.18569,0.0724 0.0675,0.0699 0.0675,0.22909 0,0.15434 -0.0699,0.22669 -0.0699,0.0724 -0.18328,0.0724 -0.11816,0 -0.18569,-0.0748 -0.0651,-0.0772 -0.0651,-0.22428 z m 2.29823,-0.44131 q 0,0.23874 -0.0868,0.40755 -0.0868,0.1664 -0.25321,0.25322 -0.16399,0.0868 -0.40033,0.0868 -0.18327,0 -0.3352,-0.0434 -0.15193,-0.0434 -0.25804,-0.1037 v -0.38585 q 0.10611,0.0868 0.26286,0.14469 0.15675,0.0555 0.31833,0.0555 0.18569,0 0.28456,-0.10611 0.10129,-0.10611 0.10129,-0.29662 0,-0.11335 -0.041,-0.19534 -0.041,-0.0844 -0.13264,-0.15917 -0.0892,-0.0772 -0.23633,-0.16157 -0.16399,-0.10129 -0.2918,-0.20981 -0.1254,-0.10852 -0.19534,-0.24839 -0.0699,-0.14228 -0.0699,-0.34485 0,-0.30868 0.20016,-0.4992 0.20257,-0.19051 0.53296,-0.19051 0.16639,0 0.3135,0.0434 0.14952,0.041 0.28215,0.1254 l -0.13987,0.29903 q -0.10128,-0.0699 -0.21704,-0.11093 -0.11334,-0.041 -0.23392,-0.041 -0.17605,0 -0.27974,0.0989 -0.10129,0.0989 -0.10129,0.26527 0,0.11093 0.041,0.19052 0.041,0.0796 0.13505,0.15434 0.094,0.0747 0.24839,0.16881 0.16398,0.10369 0.28697,0.21221 0.12541,0.10611 0.19534,0.24598 0.0699,0.13987 0.0699,0.34486 z m 1.4397,-1.99678 q 0.38103,0 0.57636,0.34244 0.19775,0.34003 0.19775,1.02492 0,0.44132 -0.0892,0.75 -0.0868,0.30626 -0.25563,0.46784 -0.16881,0.15916 -0.40997,0.15916 -0.13505,0 -0.2508,-0.0506 -0.11576,-0.0531 -0.20498,-0.14711 -0.0892,-0.0965 -0.14952,-0.22427 h -0.0169 q 0.005,0.0965 0.01,0.18569 0.007,0.0892 0.007,0.16881 v 1.20096 h -0.37138 v -3.82957 h 0.30144 l 0.0458,0.38826 h 0.0217 q 0.0675,-0.1471 0.15434,-0.24356 0.0892,-0.0965 0.19775,-0.1447 0.10852,-0.0482 0.23633,-0.0482 z m -0.0796,0.32074 q -0.16881,0 -0.28215,0.10611 -0.11094,0.10611 -0.16881,0.32074 -0.0555,0.21221 -0.0555,0.53536 v 0.12782 q 0,0.34244 0.0555,0.56671 0.0579,0.22428 0.17122,0.3328 0.11575,0.10852 0.28456,0.10852 0.15434,0 0.25804,-0.11093 0.10611,-0.11093 0.15916,-0.34244 0.0531,-0.23151 0.0531,-0.59325 0,-0.52331 -0.11093,-0.78617 -0.10853,-0.26527 -0.36415,-0.26527 z m 2.09083,-0.32074 q 0.36656,0 0.52331,0.23392 0.15675,0.23392 0.15675,0.67765 v 1.78456 h -0.28215 l -0.0555,-0.3762 h -0.01 q -0.0627,0.13505 -0.14951,0.23151 -0.0868,0.0941 -0.19775,0.14469 -0.11093,0.0482 -0.25563,0.0482 -0.20498,0 -0.3352,-0.10852 -0.13023,-0.10852 -0.19293,-0.28456 -0.0627,-0.17846 -0.0627,-0.38344 0,-0.39309 0.22669,-0.61013 0.22668,-0.21704 0.64388,-0.23633 l 0.30145,-0.0193 v -0.18087 q 0,-0.31833 -0.0868,-0.46543 -0.0868,-0.14711 -0.27974,-0.14711 -0.11093,0 -0.23392,0.0386 -0.12058,0.0386 -0.26286,0.12299 l -0.11817,-0.27975 q 0.14952,-0.0965 0.31833,-0.14228 0.17122,-0.0482 0.35209,-0.0482 z m 0.31591,1.37459 -0.24598,0.0169 q -0.27974,0.0169 -0.4172,0.15917 -0.13504,0.13987 -0.13504,0.40755 0,0.24839 0.0892,0.36656 0.0892,0.11817 0.24598,0.11817 0.21946,0 0.34003,-0.21222 0.12299,-0.21222 0.12299,-0.58601 z m 1.76768,1.36977 q -0.2918,0 -0.48713,-0.15193 -0.19293,-0.15192 -0.28939,-0.45337 -0.0965,-0.30145 -0.0965,-0.74759 0,-0.43649 0.0965,-0.74758 0.0989,-0.31109 0.29662,-0.47749 0.19775,-0.1664 0.49437,-0.1664 0.14952,0 0.26769,0.0314 0.12057,0.0314 0.22427,0.0892 l -0.11817,0.30627 q -0.0892,-0.0482 -0.17845,-0.0724 -0.0868,-0.0241 -0.17122,-0.0241 -0.17364,0 -0.2918,0.12058 -0.11817,0.11817 -0.18087,0.35209 -0.0603,0.23392 -0.0603,0.5836 0,0.34003 0.0579,0.56913 0.0603,0.2291 0.17845,0.34727 0.12058,0.11575 0.29904,0.11575 0.10611,0 0.21463,-0.0289 0.11093,-0.0314 0.22186,-0.0892 v 0.31351 q -0.10128,0.0627 -0.23633,0.0965 -0.13264,0.0338 -0.24116,0.0338 z m 1.65916,-2.73954 q 0.2701,0 0.44373,0.15675 0.17604,0.15676 0.26045,0.42203 0.0868,0.26527 0.0868,0.59083 v 0.26286 h -1.26125 q 0.005,0.49438 0.15193,0.74277 0.14952,0.24839 0.44855,0.24839 0.14229,0 0.27975,-0.0434 0.13746,-0.0434 0.28456,-0.13987 v 0.3328 q -0.13746,0.0844 -0.28697,0.1254 -0.14952,0.041 -0.31833,0.041 -0.33039,0 -0.53537,-0.17604 -0.20498,-0.17846 -0.29903,-0.48473 -0.0916,-0.30868 -0.0916,-0.69694 0,-0.44373 0.094,-0.75241 0.0941,-0.30868 0.27974,-0.46784 0.1881,-0.16158 0.46302,-0.16158 z m 0,0.30386 q -0.20981,0 -0.32797,0.20498 -0.11817,0.20258 -0.13746,0.62701 h 0.90916 q 0,-0.22427 -0.0482,-0.41238 -0.0458,-0.19051 -0.1447,-0.30385 -0.0965,-0.11576 -0.2508,-0.11576 z"
         id="text3"
         aria-label="info at haxko.space" />
    </g>
  </g>
</svg>
